PathFileType	3	(X/Y/Z)	results
DataRate	CameraRate	NumFrames	NumMarkers	Units	OrigDataRate	OrigDataStartFrame	OrigNumFrames
30.0	30.0	4	85	mm	30.0	33	262
Frame#	Time	head			nose			neck			shoulder_r			elbow_r			wrist_r			shoulder_l			elbow_l			wrist_l			hip_r			knee_r			ankle_r			hip_l			knee_l			ankle_l			heel_r			heel_l			mtoe_r			ltoe_r			mtoe_l			ltoe_l			asis_l			asis_r			psi_r			psi_l			mhnd_r			lhnd_r			mhnd_l			lhnd_l			l_lat_knee			r_med_wrist			l_lat_ankle			r_med_ankle			r_lat_knee			xiphoid			l_med_ankle			r_med_knee			l_med_elbow			navel			r_lat_elbow			r_lat_wrist			l_med_wrist			l_lat_elbow			l_med_knee			r_med_elbow			r_lat_ankle			l_lat_wrist			chin			T10			r_eye			l_eye			l_ear			r_ear			spinal_cord_8			spinal_cord_12			spinal_cord_27			spinal_cord_33			up_arm_r_0			up_arm_r_5			up_arm_l_0			up_arm_l_5			front_torso_11			front_torso_7			front_torso_4			front_torso_1			front_torso_10			thigh_r_2			thigh_r_3			thigh_l_1			thigh_l_5			shank_l_0			shank_l_4			shank_r_1			shank_r_2			foot_r_1			foot_r_3			foot_r_5			foot_r_6			foot_r_7			foot_l_1			foot_l_7			foot_l_0			foot_l_4			foot_l_5			foot_l_6			
		X1	Y1	Z1	X2	Y2	Z2	X3	Y3	Z3	X4	Y4	Z4	X5	Y5	Z5	X6	Y6	Z6	X7	Y7	Z7	X8	Y8	Z8	X9	Y9	Z9	X10	Y10	Z10	X11	Y11	Z11	X12	Y12	Z12	X13	Y13	Z13	X14	Y14	Z14	X15	Y15	Z15	X16	Y16	Z16	X17	Y17	Z17	X18	Y18	Z18	X19	Y19	Z19	X20	Y20	Z20	X21	Y21	Z21	X22	Y22	Z22	X23	Y23	Z23	X24	Y24	Z24	X25	Y25	Z25	X26	Y26	Z26	X27	Y27	Z27	X28	Y28	Z28	X29	Y29	Z29	X30	Y30	Z30	X31	Y31	Z31	X32	Y32	Z32	X33	Y33	Z33	X34	Y34	Z34	X35	Y35	Z35	X36	Y36	Z36	X37	Y37	Z37	X38	Y38	Z38	X39	Y39	Z39	X40	Y40	Z40	X41	Y41	Z41	X42	Y42	Z42	X43	Y43	Z43	X44	Y44	Z44	X45	Y45	Z45	X46	Y46	Z46	X47	Y47	Z47	X48	Y48	Z48	X49	Y49	Z49	X50	Y50	Z50	X51	Y51	Z51	X52	Y52	Z52	X53	Y53	Z53	X54	Y54	Z54	X55	Y55	Z55	X56	Y56	Z56	X57	Y57	Z57	X58	Y58	Z58	X59	Y59	Z59	X60	Y60	Z60	X61	Y61	Z61	X62	Y62	Z62	X63	Y63	Z63	X64	Y64	Z64	X65	Y65	Z65	X66	Y66	Z66	X67	Y67	Z67	X68	Y68	Z68	X69	Y69	Z69	X70	Y70	Z70	X71	Y71	Z71	X72	Y72	Z72	X73	Y73	Z73	X74	Y74	Z74	X75	Y75	Z75	X76	Y76	Z76	X77	Y77	Z77	X78	Y78	Z78	X79	Y79	Z79	X80	Y80	Z80	X81	Y81	Z81	X82	Y82	Z82	X83	Y83	Z83	X84	Y84	Z84	X85	Y85	Z85	
33	1.1	74.69828105583755	1018.6482440368126	-407.2544900199914	72.29848315776212	821.5151637769375	-462.6124044230067	79.30537808400432	790.8385617838396	-290.24866836443283	260.13554737408845	702.2553370675184	-373.4514231303484	192.2837365704627	549.5207650192345	-570.6447281728565	88.34800097130868	753.7062026024005	-570.9444827670585	-71.95810067767759	715.8341164788533	-303.00959877930603	-109.02893664786819	570.1233605563918	-503.79630015520826	38.12669486939305	742.2788077365005	-557.5394436731389	157.9878814308493	402.4142490029461	62.5287253300565	281.25946694503494	409.39263720219486	-334.8826346981101	256.5911592194814	112.807737924298	-101.71906820569887	-41.574491002788484	398.88829945144363	49.41272955517238	-123.78747025293582	408.0504985341578	-345.26086613800936	-94.6663894337017	127.12181600812794	-97.93459377057923	247.64845967518423	65.24339322990515	-62.32948993810612	-93.64720235288756	76.89908808922976	-45.104201478946756	292.9652000718904	30.892765990994725	-284.51127394819355	344.0268797038839	25.036387680054887	-209.59133879536142	-98.56350932382102	42.166796411304084	-273.133185562262	-174.30605349774495	31.69498151461847	-209.00814577043823	-81.0034117408282	405.60430615253887	-30.218831802912206	210.88928983847293	411.45153071514756	-6.502748371396208	105.76940316717062	529.9460396584548	58.9616732508573	6.539720355545044	523.3712925847954	48.97678496996502	37.960303927775875	802.7691165514927	-591.8154730630636	65.38335810279203	836.933656489294	-560.9966060284215	87.99784422805962	781.0584763445645	-600.243337699849	88.37895084914513	814.8816505379659	-558.8719107371054	-165.0840590690964	421.5095900555662	-312.9621629561652	79.36407834266899	739.1586241448962	-594.151947420881	-143.67024962167574	119.68517571376486	-78.5778545310728	230.34152751740643	91.19412215017975	-117.05519133115885	316.150225878283	415.6136568704561	-304.38511040626435	75.62914412698893	597.1998986630117	-253.2631011135691	-66.35898375923821	109.56732889297471	-104.4123886064349	234.5106193053028	413.78463897251373	-325.472135893319	-91.56195265287992	549.9277228655769	-481.9613835782901	65.52069591101869	417.5916044442151	-121.76306092638059	220.45094196841848	570.824973984244	-588.3843297831811	101.80559964872216	752.4324779782306	-542.1739415161064	27.48409187747666	729.312563824327	-585.2399074151456	-134.697662538128	598.2599847602039	-506.3908839154575	-73.65294313344393	424.8075113778012	-327.18775154735084	169.98793299282625	536.391620793773	-544.9975427930091	298.65805554251364	106.21077426294146	-76.88380081478063	28.3638427782231	749.4490769387786	-528.8189500005819	78.26004346289625	758.998410158376	-421.1227884482403	74.03162693275553	733.7837620246274	-108.8450672251504	102.24269480142985	851.0850348510069	-475.2138463785714	36.118428053355885	849.1239505019828	-468.6789350155587	-5.641265073234939	875.6776904658044	-369.99044108866974	158.74289252023667	878.5378519026696	-382.88958676600413	80.77737575616877	868.728415126985	-290.9823650131887	75.37781504801957	811.4836866075841	-174.34957769181602	79.87299653637744	605.5355926664263	-21.844420706769174	73.72136882698662	717.797621678518	-112.65826971535961	206.51033709270027	662.3017446145162	-491.41146348572624	250.25671351675683	587.1821023642502	-483.2150154863726	-101.66073170422762	701.8563834336899	-350.5834109963482	-90.04790564750401	578.4638330117275	-426.0245644064007	110.51446917393417	464.1912380746821	-108.01282605793986	73.85080322977127	509.6884513818866	-220.19369398771622	17.836163384049314	629.6383316499038	-289.0295337299034	3.4940330085840228	489.5134574693159	-136.3631542074845	152.29727081111605	653.9668191652174	-318.29201108976366	203.3538268387583	408.1692090132998	-144.04361543260896	305.2081515353738	412.1955822205666	-149.85887729393977	-52.26198551223359	401.8383918596612	-221.8473697117328	-152.8426790593849	434.8824975132696	-30.925080128041476	-167.386743513503	190.07877788985508	-155.62652332977368	-66.72777378687695	295.57143897374914	-259.5289390263492	322.1078440569012	294.60456444903934	-213.7772063806142	234.6998841124282	243.79823234283262	-230.5023729030074	310.7567954291193	22.77267554021583	-260.61396231098297	331.11074636472404	23.442604850903876	-238.61716535780968	264.55527862662007	53.076181898556754	-206.79574163449502	298.90659938286876	56.62618956693716	-185.59765574640727	324.73019861097725	40.54139798323484	-165.3045002967756	-145.74866732650023	29.986577086644456	-241.55324153640396	-159.68876164646625	75.07082959769227	-138.8751570304389	-160.3041284159513	30.11146511575175	-232.4875081971015	-127.82254982847047	29.90038121754048	-252.0364701987599	-132.21289815706174	54.14545941201002	-195.0899723196766	-100.24905423037201	72.88526100545198	-169.30647254063433	
34	1.1333333333333333	74.86393560570846	1020.2357571880563	-403.52990139747425	71.1113497957206	823.3777321765357	-459.7841913499011	77.10306103777457	789.6415264996223	-288.7021017619905	258.47852124323407	701.7004481046763	-373.00886752996297	191.00328536836258	550.4834548169918	-571.4967280311884	89.76167241144191	755.9877264514754	-567.9541224583944	-75.2802202410648	714.8288571190946	-298.4687196370443	-111.28879016275262	571.5863548376944	-501.2152095025847	36.19134900037092	742.8214732913914	-556.9713402577783	157.42107092361604	401.9144198393846	64.08230387797839	279.6732735706436	409.6698258793996	-333.56086421150025	256.45810530142813	112.20435832169679	-101.37187179779164	-42.20404714650797	397.9381096414227	52.09884238110188	-122.94700175724972	409.4388567224196	-342.79593050303527	-94.16609515489833	126.29701579472169	-97.96618486684741	247.64770850724472	64.58819365675767	-62.068617727339905	-93.19473426816899	75.618035166641	-45.604828092376536	293.29375015485743	29.94937805961872	-284.13822175663057	344.3557284859252	24.619541343973005	-209.17919170308818	-98.03838289548648	42.63933013080803	-273.8955721527446	-173.9965881652508	32.435616376323985	-209.98275723049952	-82.09831893124964	404.529255526867	-27.311068685364624	209.91029328292367	411.0373140821117	-5.251888050689907	104.89911066183724	529.3279718099516	60.75342643742522	5.629355922137883	522.5276894567479	51.33391488974095	39.9666989138911	806.0613148132863	-587.8232980178618	67.92098585567047	839.3238647363843	-556.4991401052139	85.81569811869232	781.2218902413684	-600.300876989678	86.80350044078989	815.15683686169	-559.0311427022389	-164.4084161682709	422.54391176334263	-310.5891028404829	80.52370004111276	741.9638629325094	-591.3831736325136	-143.38331576408592	117.99343455950195	-79.52489911033977	230.07892271000281	90.6717322315323	-116.59924725498949	314.6477743696817	415.88914338103024	-303.2047572190862	75.39536891762197	596.0583754531368	-251.28517838856624	-65.51620688603636	109.19621033085036	-104.14497232869813	232.9598670215944	413.9283070569495	-324.0919357206007	-93.91107766916664	551.1341160942314	-479.54855465206657	66.31429238745321	416.6457776092078	-119.44347622002331	219.36376676594404	571.7652997227016	-588.9529709590122	103.28005330044996	754.0389086875733	-539.2499612981013	25.193523782203894	729.8344885293295	-584.5229325605178	-136.96548855168203	599.7356030583627	-503.58416702857346	-72.93430364363158	426.2022014946486	-324.4453747461401	168.508401767495	537.3012466940029	-546.0513943929866	298.6996799565421	105.47692655267166	-76.87033644528879	26.765617572063015	750.1220063013614	-528.1711561786038	76.38764354439348	760.6301054485466	-418.55108593335586	71.00769992550006	732.9449286733317	-107.21196015395768	101.34786360487827	852.760071700415	-472.12359094750764	35.18220059127967	851.3054694035657	-465.88189715128743	-6.789014079206568	877.7556416257863	-367.25534171032257	157.66726379605518	879.3418375434314	-379.4346848901042	77.66692531478309	867.5414131426769	-289.60987916440274	71.98060370309555	810.504852166912	-172.88876823737388	77.6380236006671	604.9741745746925	-19.860074423995233	70.91642229962494	716.9475413469735	-110.98935656081343	205.31402155932898	662.7132163477095	-491.4996080186387	248.67113944006994	587.3443498160228	-483.52576649440385	-104.74597025477352	701.4202769090216	-346.35264671830276	-92.6840308880532	578.9775860794962	-423.2567684390407	110.64354526379245	463.80246369843314	-105.43638007651387	74.37220451423252	508.6081547369459	-218.0223820459195	17.521771382635507	627.7331468617587	-287.6014808499625	3.5700707451619405	487.7999258836963	-134.72328024456968	151.92421034459338	653.5732167752726	-315.8190726053586	202.26372074771544	408.02097122726474	-142.5941759704584	304.0953154357883	412.2527603388222	-148.65641114595192	-51.87408594361983	402.61402406209476	-219.17517630183534	-153.27357359947797	434.12532946215896	-28.426936394188917	-166.75640022544596	188.88154467465444	-156.22433483553132	-65.80995940884318	296.82822512904414	-257.2885321652936	321.30811491899584	294.38027971987447	-213.20191415273067	233.73745997106414	243.71046247930155	-229.4842988595161	311.12582432318	22.00711805454427	-260.21133573614316	331.46430463478174	22.86625238373447	-238.20680649808733	264.70317880555086	52.15215029897778	-206.49449905180927	299.0205061613754	55.97970107740331	-185.2896520668687	324.93765668255963	40.11542358305443	-164.94224525586216	-145.398338922658	30.689037451917542	-242.48992276916752	-159.08069953203403	75.14054331852765	-139.50175972947974	-159.96830531012353	30.889602068204944	-233.448881964675	-127.4549301972597	30.504544058218634	-252.9422548998091	-131.70997145741447	54.36584225762178	-195.82364437829614	-99.61020619686595	72.59686114574039	-169.84497305534413	
35	1.1666666666666667	74.05855347259194	1026.5307421808538	-399.9252664831767	70.77333935556433	829.7574341947936	-456.50425270755034	74.34936904372012	792.8350792405485	-286.0975526248497	257.54222218553696	704.2099110918299	-370.2947214517846	189.63348814506608	555.6095754149577	-570.6026378191426	94.18135161158574	763.804124975463	-564.4107824530132	-76.52730469368034	717.2832424240531	-295.86385613849205	-112.88584797188616	576.8518032359468	-500.50558682576826	33.62591596261302	748.55083310805	-557.3769286949051	156.21568756752248	404.98813600865896	66.91650241305028	276.70989463521244	410.51591702974133	-330.78107068816377	255.90038977524944	111.40860367516959	-100.48092689646526	-43.449976330817734	402.00945374836886	55.32545980352924	-122.15108883209518	410.6361253718578	-339.84828776736936	-94.03697191739292	125.44998012074215	-97.32466829088344	247.32564770989137	63.69503887413022	-61.3698086019565	-93.21234407725821	74.29587372671955	-45.44381639444171	293.91431593074486	28.43840084002927	-283.14623468402175	344.77189817855225	23.77017168517792	-208.0043492835938	-97.02157363104985	43.326020639085456	-274.0353247919294	-173.45254263989025	33.313863679218954	-210.65807080555894	-83.46906316732942	408.90939716507427	-23.99536703608557	208.61125771053958	413.95168958349285	-2.509247639430175	104.3140509014066	532.6627375738564	63.87229692441415	4.993555254534196	526.3635405224119	54.64112663419755	45.94625700671586	815.5687413668278	-583.788292942674	74.61336823279856	847.5314844955395	-551.7629585902299	82.6006395871257	787.2419960761229	-601.184315684211	84.13054321807849	820.951821071889	-559.7469603470004	-163.87714510538748	423.5166883112036	-308.153060603834	84.71018636908659	750.4178593300036	-588.1180438185004	-143.51789994969658	116.06994545386074	-80.14858035193217	229.570734380237	89.8438129216419	-115.74845028375775	311.9551360818484	416.7155014354069	-301.08214907972683	75.11904977347841	599.3382804364996	-248.2059284797171	-64.9433333541099	108.93178608039995	-102.99392932075516	230.18518384426181	414.57063985441084	-321.62741110324066	-95.31191889433657	556.1644823610687	-479.22379495248117	67.61316522710783	420.1337755233856	-115.98267877386847	218.66649353115636	576.3952521023791	-587.5435494754169	107.44729678672448	761.0221184211279	-535.6575475290065	22.257341097657036	735.7026548629051	-584.8429803309999	-138.69878038325191	604.9162608384518	-502.3396302026428	-72.35156992441493	427.55032278442116	-321.55796633944647	166.52454295290758	542.7517855830844	-545.5445194556469	298.270684892924	104.73332886768787	-76.18827368471904	24.596189439667874	755.6834301406242	-528.4082750038149	75.92647430334283	766.9507405123003	-415.34556775658666	67.7134746842027	736.4963400375107	-104.51495295150445	101.0351156215214	859.1909230451816	-468.65843128862105	34.843029246654964	857.6568722089538	-462.7234535556427	-7.60927713926235	883.9079769707931	-364.2497357881591	156.89949390709057	885.6864126849534	-375.66994443750275	73.81121842778596	870.7326685188364	-287.1976981978028	68.0702988379926	813.9032354208142	-170.3782706462419	75.51533689947529	608.8446349799274	-16.79380282761514	67.87794778198834	720.4901903541687	-108.2525427368606	205.19261617027013	667.0423897721846	-489.72929750606676	246.85580277898953	590.736556640343	-481.63692001166686	-106.16611935156273	704.4414407596634	-343.79630564330853	-93.93444298689033	583.1892182226082	-422.53785426685073	111.1615077028807	467.9511149121573	-101.76725168716081	75.09352594317834	511.9630358435645	-214.7310487921346	17.07189245316383	630.0972115637577	-285.028936814682	3.97785981478338	490.3494113991109	-131.9054599643878	151.29886904279127	657.7816607418413	-312.31716368719964	200.22294077207715	409.8030174014497	-139.97356288300128	302.02657730666607	414.0592527357976	-146.47252127920467	-51.722911397382795	404.7880904518302	-216.02082220868527	-154.2793921555079	437.07646680804635	-26.02256300734591	-166.3524623102332	187.34542068202575	-156.65098597620403	-65.0188429203759	298.1571837232468	-254.16453616087793	319.3946837980807	294.6456625898062	-211.35113626145787	232.0174461880748	243.64185953373598	-227.62984813938962	311.72350857924266	20.717962278362354	-259.12987102516666	331.9853686684278	21.807652494072503	-237.0649486113096	264.92595417047244	50.77087337079684	-205.68742567062472	299.148649878084	54.92070411603962	-184.39046248915076	325.10793887129574	39.318558232112856	-163.89462597849322	-144.6803353651714	31.568091286029844	-243.01141029827278	-158.5420514019453	75.26526233290737	-139.72484213493726	-159.30101827633365	31.83283497326559	-234.05428422363264	-126.67790552995683	31.298701593955162	-253.35989572804658	-131.040302029399	54.70926609372477	-196.06314571219897	-98.92013322223512	72.40347567185957	-169.74079691138783	
36	1.2	72.49851115070271	1037.6228437577238	-396.0218851210196	71.28767197311657	840.9368244987365	-452.98549408576883	71.91292699319477	801.2697712657805	-282.4489745575623	258.26402829283404	712.6094253101325	-366.3284638766092	189.81249303182778	566.6446148013291	-568.3818694287833	98.62583296746797	776.7040825640195	-561.004001312244	-76.4706553591861	725.7839293392868	-296.9034582093265	-113.37670306485498	586.6035558222003	-502.30048348192105	31.217336726279328	760.2542356551343	-558.1449855090301	155.96211373545145	413.37321389628937	70.71907670781347	272.75096043637075	411.39056599331485	-327.0010062962909	254.3822667814357	110.17357843854647	-99.25708403484926	-43.71527791683111	410.2763135127669	59.36343371835833	-120.89510831186206	411.8861759700942	-335.78888354815376	-93.59143872247284	124.57890778932895	-95.68829984515901	246.11326793466486	62.15285246030775	-60.515789060210544	-92.9399007471135	72.92608555791783	-44.281545172186284	294.09710600118916	28.1076218233655	-282.18398987637875	344.6561691323352	23.746034224162653	-206.82254969652942	-96.26762564142096	44.329297581321796	-273.1895391478254	-172.85642170028348	33.7645356135704	-210.09314657034952	-83.82184871257387	416.6694807547547	-19.95567175140986	208.28037225665847	421.9131083960973	1.1817064606540264	104.02720122777754	541.0143599602393	66.93045495153402	4.69825197145611	534.6347169217433	57.846665087341606	51.647243732020115	829.640661665422	-580.3021494345594	80.67633156710082	860.694041627667	-547.7131649899646	79.58941883714621	799.8597876911396	-601.8045631631144	81.03220812665849	833.1458627816835	-560.0229537178072	-162.85611694559486	424.67503051835246	-304.88927572831255	89.09580282113792	763.7447525463448	-584.9239430207032	-143.11944628262583	115.0976109989203	-78.7045792730901	228.23573138889014	88.52136813173739	-114.71440267816946	308.6080230443593	417.36052028484283	-298.73814975138276	74.16801959190433	607.7320083765075	-244.82680517057565	-64.50073268888836	108.08264367231135	-101.4359213079328	226.65207243400397	415.40010672341367	-318.5475477728985	-95.4551647883904	565.9032040104807	-481.32342948911554	68.00168472643406	428.2901985619162	-112.85637722725222	219.41236804479885	586.9966321647269	-584.862070680737	111.5701773837818	773.3723553531597	-532.1627648290845	19.81872887920602	747.5890327002155	-585.6834775595239	-139.435086392447	614.4651570454332	-503.70647456816744	-71.29944661737336	428.88683975776945	-318.0243203948591	166.1934157361762	554.0540186536549	-543.6660550678931	296.80177656496113	103.64425276547412	-75.01069671300792	22.28024885181204	766.9976450627967	-529.0546488305508	76.98282851310253	778.1047374869313	-411.9371451331586	65.64583249545981	744.6277133423517	-100.94765243063023	101.27932127242745	870.6936773454847	-465.02127850646315	35.0939287125603	868.4891948958829	-459.22441382436676	-7.816790725442335	894.1250800599815	-360.787309748632	156.68886862709482	897.563393223295	-371.86818489201755	70.77148562211775	879.1623116151768	-283.44074633072154	65.4274070350264	822.1269737705692	-166.7028675661152	74.403914698893	616.9178962504558	-13.40151801188686	65.9357513198687	728.6285552987048	-104.7074855996287	206.55109778550147	677.2248627809217	-486.5791578505993	246.694815696126	600.1013380139879	-478.55845328767936	-106.40193727680207	713.0580167540307	-344.68483984992196	-93.82730351713403	592.5097546587937	-424.4466223533709	111.17279783870713	476.42368262205446	-98.55752584871726	74.80712688070737	520.3125163457598	-211.47376116858518	15.89801954141904	638.0915770126769	-281.6292771831976	3.8300780549760036	498.03274847875855	-128.7058001029863	149.9166206398347	666.853494813965	-308.82714365371305	198.22090735997767	414.1335090605347	-136.5897191699877	299.99100604526717	417.57775951706685	-144.0272297415923	-50.96926220382015	408.1255748532221	-212.0177024602275	-154.39228315202203	443.36182451039514	-23.015599453946482	-165.71587813458345	187.05628894872962	-154.6359865350006	-64.06035017760856	298.61301228760755	-250.95780561174396	316.3735749402394	294.8677668993036	-208.5488171136309	229.42639777908974	243.2800490232318	-225.28386378189626	311.8777939584848	20.502282911323856	-258.10985035762496	332.02515848574126	21.73910725043259	-235.94805511605	264.51453894247237	49.87972883097636	-204.79032977865836	298.592387743279	54.3289579145058	-183.32223207218638	324.62359105054384	38.941224651447655	-162.7556311160527	-144.01267911905478	32.315027288949466	-242.39738233849104	-158.05261558638162	74.95931487469679	-138.69564651771952	-158.6534327113913	32.50672049704805	-233.47123235722063	-125.98701653843636	32.1285382293552	-252.70717922439545	-130.44938744146114	54.95059664396598	-195.1811547533903	-98.36608793409334	72.3281265143606	-168.60410278159895	
